<svg width="32" height="32" viewBox="0 0 32 32" fill="none" xmlns="http://www.w3.org/2000/svg">
<rect width="32" height="32" fill="url(#paint0_linear_3350_45)"/>
<g clip-path="url(#clip0_3350_45)">
<path fill-rule="evenodd" clip-rule="evenodd" d="M15.9971 4C22.6228 4.00017 27.994 9.37135 27.9941 15.9971C27.9938 22.6227 22.6227 27.994 15.9971 27.9941C9.37144 27.994 4.00032 22.6227 4 15.9971C4.00016 9.37134 9.37134 4.00016 15.9971 4ZM12.6528 17.1221C12.7638 19.4447 13.2126 21.4883 13.8525 22.9814C14.224 23.8481 14.6373 24.4776 15.0391 24.874C15.4359 25.2656 15.7591 25.375 16 25.375C16.2409 25.375 16.5641 25.2656 16.9609 24.874C17.3627 24.4776 17.776 23.8481 18.1475 22.9814C18.7874 21.4883 19.2362 19.4447 19.3472 17.1221H12.6528ZM6.31592 17.1221C6.73118 20.7328 9.11858 23.7409 12.3745 25.0454C12.1594 24.678 11.9623 24.2832 11.7842 23.8677C11.008 22.0565 10.5107 19.701 10.3984 17.1221H6.31592ZM21.6016 17.1221C21.4893 19.701 20.992 22.0565 20.2158 23.8677C20.0381 24.2824 19.8401 24.6757 19.6255 25.0425C22.8781 23.7366 25.2618 20.7304 25.6768 17.1221H21.6016ZM12.3804 6.94434C9.12102 8.2477 6.73116 11.2586 6.31592 14.8721H10.3984C10.5112 12.2954 11.0085 9.94216 11.7842 8.13232C11.9639 7.71296 12.1629 7.31459 12.3804 6.94434ZM16 6.625C15.7591 6.625 15.4359 6.73439 15.0391 7.12598C14.6373 7.52244 14.224 8.15195 13.8525 9.01855C13.2131 10.5105 12.7658 12.5518 12.6543 14.8721H19.3457C19.2342 12.5518 18.7869 10.5105 18.1475 9.01855C17.776 8.15195 17.3627 7.52244 16.9609 7.12598C16.5641 6.73439 16.2409 6.625 16 6.625ZM19.6196 6.94727C19.8366 7.31691 20.0364 7.71378 20.2158 8.13232C20.9915 9.94216 21.4888 12.2954 21.6016 14.8721H25.6768C25.2618 11.261 22.8756 8.252 19.6196 6.94727Z" fill="white"/>
</g>
<defs>
<linearGradient id="paint0_linear_3350_45" x1="18.0854" y1="-1.58936" x2="35.6835" y2="27.5787" gradientUnits="userSpaceOnUse">
<stop stop-color="#4E2A9A"/>
<stop offset="0.5" stop-color="#7C30A9"/>
<stop offset="1" stop-color="#A737B4"/>
</linearGradient>
<clipPath id="clip0_3350_45">
<rect width="24" height="24" fill="white" transform="translate(4 4)"/>
</clipPath>
</defs>
</svg>
